<svg width="1920" height="1080" viewBox="0 0 1920 1080" fill="none" xmlns="http://www.w3.org/2000/svg">
<path d="M1004.5 38.8617C984 62.7766 961.9 120.969 959.5 170.393C956.5 232.174 1052 335.307 1049.5 462.354C1047 589.402 928.5 673.602 923.5 748.336C918.5 823.07 1073.5 929.691 1061.5 1010.4C1054.31 1058.75 1036.13 1076.32 1035 1080H1920V0H1035C1035 0 1025 14.9468 1004.5 38.8617Z" fill="#2C9C45"/>
<path d="M809.5 170.393C811.9 120.969 834 62.7766 854.5 38.8617C875 14.9468 885 0 885 0H0V1080H885C885 1080 897 1066.31 911.5 1010.4C926 954.5 768.5 823.07 773.5 748.336C778.5 673.602 897 589.402 899.5 462.354C902 335.307 806.5 232.174 809.5 170.393Z" fill="#2C9C45"/>
</svg>
