<svg height="100%" width="100%" id="svg" viewBox="0 0 1440 400" xmlns="http://www.w3.org/2000/svg" class="transition duration-300 ease-in-out delay-150"><defs><linearGradient id="gradient"><stop offset="5%" stop-color="#6d4c3744"></stop><stop offset="95%" stop-color="#6d4c3744"></stop></linearGradient></defs><path d="M 0,400 C 0,400 0,80 0,80 C 76.22966507177034,63.004784688995215 152.45933014354068,46.00956937799043 260,54 C 367.5406698564593,61.99043062200957 506.3923444976076,94.96650717703349 612,102 C 717.6076555023924,109.03349282296651 789.9712918660288,90.1244019138756 865,85 C 940.0287081339712,79.8755980861244 1017.7224880382776,88.53588516746412 1114,90 C 1210.2775119617224,91.46411483253588 1325.1387559808613,85.73205741626793 1440,80 C 1440,80 1440,400 1440,400 Z" stroke="none" stroke-width="0" fill="url(#gradient)" class="transition-all duration-300 ease-in-out delay-150"></path><defs><linearGradient id="gradient"><stop offset="5%" stop-color="#6d4c3766"></stop><stop offset="95%" stop-color="#6d4c3766"></stop></linearGradient></defs><path d="M 0,400 C 0,400 0,160 0,160 C 120.42105263157893,154.6794258373206 240.84210526315786,149.35885167464116 326,157 C 411.15789473684214,164.64114832535884 461.0526315789474,185.24401913875596 531,189 C 600.9473684210526,192.75598086124404 690.9473684210525,179.66507177033495 812,178 C 933.0526315789475,176.33492822966505 1085.157894736842,186.0956937799043 1195,185 C 1304.842105263158,183.9043062200957 1372.421052631579,171.95215311004785 1440,160 C 1440,160 1440,400 1440,400 Z" stroke="none" stroke-width="0" fill="url(#gradient)" class="transition-all duration-300 ease-in-out delay-150"></path><defs><linearGradient id="gradient"><stop offset="5%" stop-color="#6d4c3788"></stop><stop offset="95%" stop-color="#6d4c3788"></stop></linearGradient></defs><path d="M 0,400 C 0,400 0,240 0,240 C 63.90430622009566,251.95215311004785 127.80861244019133,263.9043062200957 238,258 C 348.1913875598087,252.09569377990434 504.66985645933016,228.33492822966508 619,220 C 733.3301435406698,211.66507177033492 805.5119617224882,218.755980861244 893,221 C 980.4880382775118,223.244019138756 1083.2822966507176,220.64114832535884 1177,223 C 1270.7177033492824,225.35885167464116 1355.3588516746413,232.6794258373206 1440,240 C 1440,240 1440,400 1440,400 Z" stroke="none" stroke-width="0" fill="url(#gradient)" class="transition-all duration-300 ease-in-out delay-150"></path><defs><linearGradient id="gradient"><stop offset="5%" stop-color="#6d4c37ff"></stop><stop offset="95%" stop-color="#6d4c37ff"></stop></linearGradient></defs><path d="M 0,400 C 0,400 0,320 0,320 C 112.73684210526315,333.46411483253587 225.4736842105263,346.92822966507174 323,349 C 420.5263157894737,351.07177033492826 502.8421052631578,341.7511961722488 599,335 C 695.1578947368422,328.2488038277512 805.1578947368422,324.0669856459331 898,327 C 990.8421052631578,329.9330143540669 1066.5263157894738,339.98086124401914 1154,340 C 1241.4736842105262,340.01913875598086 1340.7368421052631,330.00956937799043 1440,320 C 1440,320 1440,400 1440,400 Z" stroke="none" stroke-width="0" fill="url(#gradient)" class="transition-all duration-300 ease-in-out delay-150"></path></svg>