<svg height="100%" width="100%" id="svg" viewBox="0 0 1440 699" xmlns="http://www.w3.org/2000/svg" class="transition duration-300 ease-in-out delay-150">
	<path d="M 0,700 C 0,700 0,140 0,140 C 47.278968832286495,116.78249536495142 94.55793766457299,93.56499072990285 138,92 C 181.442062335427,90.43500927009715 221.04721817399457,110.52253244534006 265,123 C 308.95278182600543,135.47746755465994 357.2531896394489,140.34487948873686 397,128 C 436.7468103605511,115.65512051126312 467.94002326820953,86.09794959971241 505,102 C 542.0599767317905,117.90205040028759 584.9867172877131,179.26332211241342 635,176 C 685.0132827122869,172.73667788758658 742.1131075809385,104.84876195063386 792,104 C 841.8868924190615,103.15123804936614 884.560852388533,169.34163008505115 928,190 C 971.439147611467,210.65836991494885 1015.6434828649292,185.78471770916153 1055,178 C 1094.3565171350708,170.21528229083847 1128.86521615175,179.5194990783027 1165,170 C 1201.13478384825,160.4805009216973 1238.8956525280714,132.1372859776278 1285,124 C 1331.1043474719286,115.8627140223722 1385.5521737359643,127.9313570111861 1440,140 C 1440,140 1440,700 1440,700 Z" stroke="none" stroke-width="0" fill="#0693e344" class="transition-all duration-300 ease-in-out delay-150">
	</path>
	<path d="M 0,700 C 0,700 0,280 0,280 C 41.98270290179718,279.3981573136374 83.96540580359436,278.79631462727474 129,288 C 174.03459419640564,297.20368537272526 222.12107968741975,316.2128988045382 264,306 C 305.87892031258025,295.7871011954618 341.5502754467266,256.35209015457247 388,247 C 434.4497245532734,237.64790984542756 491.67781852567396,258.37874057717204 535,264 C 578.322181474326,269.62125942282796 607.7384504505782,260.13294753673955 650,267 C 692.2615495494218,273.86705246326045 747.3683796720137,297.0894692758699 793,303 C 838.6316203279863,308.9105307241301 874.7880308613666,297.5091753597808 921,286 C 967.2119691386334,274.4908246402192 1023.4794968825202,262.8738292850072 1066,265 C 1108.5205031174798,267.1261707149928 1137.2939816085523,282.99550750019034 1181,290 C 1224.7060183914477,297.00449249980966 1283.3445766832706,295.1441407142313 1329,292 C 1374.6554233167294,288.8558592857687 1407.3277116583647,284.42792964288435 1440,280 C 1440,280 1440,700 1440,700 Z" stroke="none" stroke-width="0" fill="#0693e366" class="transition-all duration-300 ease-in-out delay-150">
	</path>
	<path d="M 0,700 C 0,700 0,420 0,420 C 47.687593298614004,406.9081897368426 95.37518659722801,393.8163794736851 135,385 C 174.624813402772,376.1836205263149 206.186846909702,371.642671842102 245,375 C 283.813153090298,378.357328157898 329.877425763964,389.6129331579068 372,401 C 414.122574236036,412.3870668420932 452.303450034442,423.90559552627053 502,427 C 551.696549965558,430.09440447372947 612.9087740982683,424.76468473701084 659,431 C 705.0912259017317,437.23531526298916 736.0614535724848,455.0356655256863 783,453 C 829.9385464275152,450.9643344743137 892.8454116117928,429.0926531602443 932,415 C 971.1545883882072,400.9073468397557 986.5568999803443,394.5937218333366 1027,386 C 1067.4431000196557,377.4062781666634 1132.9269884668304,366.5324595064094 1188,374 C 1243.0730115331696,381.4675404935906 1287.7351461523342,407.2764401410259 1328,418 C 1368.2648538476658,428.7235598589741 1404.132426923833,424.36177992948706 1440,420 C 1440,420 1440,700 1440,700 Z" stroke="none" stroke-width="0" fill="#0693e388" class="transition-all duration-300 ease-in-out delay-150">
	</path>
	<path d="M 0,700 C 0,700 0,560 0,560 C 34.644001707043685,554.6984535671724 69.28800341408737,549.3969071343447 114,548 C 158.71199658591263,546.6030928656553 213.4919880506942,549.1108250297937 265,553 C 316.5080119493058,556.8891749702063 364.7440443831357,562.1597927464809 406,565 C 447.2559556168643,567.8402072535191 481.531834416763,568.2500039842824 518,564 C 554.468165583237,559.7499960157176 593.1286179498122,550.8401913163892 640,535 C 686.8713820501878,519.1598086836108 741.953693783988,496.38923075016066 791,513 C 840.046306216012,529.6107692498393 883.0566069142353,585.602885682968 927,590 C 970.9433930857647,594.397114317032 1015.8198785590707,547.1992265179673 1062,540 C 1108.1801214409293,532.8007734820327 1155.663878849481,565.6002082451627 1190,572 C 1224.336121150519,578.3997917548373 1245.5246060430054,558.399940501382 1285,552 C 1324.4753939569946,545.600059498618 1382.2376969784973,552.800029749309 1440,560 C 1440,560 1440,700 1440,700 Z" stroke="none" stroke-width="0" fill="#0693e3ff" class="transition-all duration-300 ease-in-out delay-150">
	</path>
</svg>
